<svg width="1024" height="1024" viewBox="0 0 1024 1024" fill="none" xmlns="http://www.w3.org/2000/svg">
<path fill-rule="evenodd" clip-rule="evenodd" d="M779.863 321.276C785.443 328.474 789.78 336.552 792.722 345.178C793.966 350.28 793.842 355.595 792.447 360.606H792.417C787.016 360.586 781.614 360.57 776.212 360.554C749.216 360.474 722.2 360.394 695.185 359.786C674.986 358.116 654.605 359.665 634.891 364.433C624.7 368.139 615.207 373.484 606.776 380.257H606.745C598.102 386.816 591.611 395.837 588.093 406.102C586.139 411.85 584.747 417.757 583.355 423.663C582.306 428.118 581.256 432.572 579.965 436.959C575.052 448.651 568.713 459.707 561.1 469.881C556.004 477.139 549.969 483.729 543.206 489.5C534.168 496.972 523.947 502.863 512.938 506.933C498.623 514.1 482.154 515.74 466.716 511.579C466.503 511.359 466.258 511.144 466.009 510.926C465.129 510.153 464.198 509.335 464.411 508.056C464.351 491.352 465.715 474.679 468.445 458.188C469.264 449.411 471.053 440.724 473.783 432.312C476.118 425.084 479.394 418.19 483.549 411.842C488.553 405.252 494.255 399.239 500.533 393.863C505.321 389.357 510.927 386.069 516.536 382.78C520.946 380.194 525.358 377.607 529.376 374.426C529.269 373.971 529.115 373.092 529.018 372.536C529.004 372.461 528.992 372.392 528.982 372.33C528.709 368.898 526.98 365.74 524.22 363.644C516.516 363.34 508.873 365.466 502.413 369.718C496.529 372.36 490.949 375.671 485.823 379.588C478.453 385.42 471.842 392.162 466.17 399.633C457.557 412.51 451.976 427.178 449.853 442.546C448.701 447.375 447.912 452.295 447.457 457.245C445.668 468.877 444.455 480.6 443.909 492.384C426.621 497.031 409.849 503.5 393.926 511.7C386.101 516.59 378.61 522.026 371.513 527.948C359.017 536.725 350.374 549.997 347.371 565C342.882 589.387 348.645 614.535 363.294 634.518C368.45 642.233 374.849 649.066 382.159 654.745C387.042 658.694 392.743 661.518 398.839 663.006C402.903 663.583 407.059 663.431 411.062 662.551C421.676 659.635 431.867 655.383 441.36 649.826C454.826 642.081 469.021 635.764 483.76 630.935C495.225 627.776 506.902 625.499 518.699 624.102C543.933 621.732 569.319 626.075 592.339 636.645C601.498 641.079 610.172 646.485 618.149 652.832C602.802 653.621 587.88 658.147 574.656 666.013C553.911 679.254 536.047 696.596 522.248 716.975C515.059 725.509 506.113 732.372 496.013 737.019C481.425 742.85 465.562 744.521 450.094 741.879C450.704 745.182 451.801 748.347 452.897 751.509C454.038 754.801 455.178 758.089 455.766 761.528C456.858 766.478 457.495 771.55 457.707 776.622C457.677 784.123 456.282 791.564 453.613 798.58C450.762 806.112 446.789 813.158 441.815 819.505C439.828 823.977 436.997 827.906 434.169 831.831C431.772 835.158 429.377 838.482 427.499 842.132C424.557 847.507 421.888 853.065 419.553 858.744C416.399 866.003 414.064 873.626 412.638 881.432C412.062 884.195 411.668 886.989 411.455 889.814L411.091 889.479C410.182 896.8 409.757 904.179 409.787 911.59C409.681 915.939 410.144 920.258 410.609 924.581C410.938 927.654 411.269 930.73 411.395 933.821C405.753 931.725 400.658 928.476 396.412 924.224C388.617 916.661 381.369 908.523 374.726 899.897C369.328 892.304 364.657 884.225 360.745 875.752C356.135 866.823 352.222 857.56 349.007 848.054C343.093 828.252 340.758 807.57 342.123 786.979C342.759 774.983 344.276 763.047 346.702 751.293C349.796 740.208 350.311 728.576 348.188 717.309C345.509 708.285 338.213 702.325 331.113 696.526C329.132 694.908 327.166 693.302 325.32 691.645L324.865 691.827C309.458 679.467 295.385 665.587 282.829 650.341C264.662 627.654 250.407 602.112 240.581 574.749C237.032 563.755 234.454 552.457 232.877 541.007C232.766 539.933 232.638 538.865 232.511 537.8C232.22 535.368 231.93 532.948 231.846 530.499C229.389 506.627 230.511 482.482 235.182 458.946C239.247 440.42 245.525 422.501 253.895 405.493C260.931 390.824 269.272 376.823 278.856 363.703C290.655 347.941 303.21 332.817 316.555 318.39C365.492 284.597 396.101 271.496 451.548 251.77C452.046 251.602 452.543 251.426 453.036 251.241C470.688 246.2 488.673 242.343 506.871 239.7V239.731C507.889 239.561 508.907 239.391 509.926 239.22C520.773 237.406 531.652 235.585 542.659 234.78C563.01 233.566 583.391 233.505 603.712 234.598C618.543 235.509 633.313 237.453 647.871 240.369C655.544 241.31 663.127 242.92 670.497 245.197C673.101 246.108 675.746 246.908 678.392 247.709C682.986 249.099 687.582 250.49 691.97 252.456C707.347 258.469 721.965 266.305 735.492 275.75C752.779 288.263 767.792 303.661 779.863 321.276ZM414.134 477.347C411.434 478.411 408.733 479.474 406.148 480.783V480.813C391.499 489.104 377.336 498.276 363.809 508.299C363.052 508.845 362.295 509.383 361.538 509.921C360.778 510.461 360.019 511.001 359.259 511.549C357.093 513.032 354.851 514.415 352.625 515.79C352.485 515.877 352.344 515.963 352.203 516.05C352.109 516.109 352.014 516.167 351.92 516.226C352.144 512.906 352.89 509.69 353.634 506.478C354.095 504.49 354.556 502.503 354.892 500.494C355.684 497.541 356.897 494.729 358.11 491.917C359.081 489.667 360.051 487.418 360.806 485.096V485.126C363.475 479.416 363.596 472.826 361.2 466.965C358.198 462.622 354.073 459.19 349.25 457.034C340.88 453.845 331.69 453.693 323.258 456.578C319.71 458.006 316.252 459.676 312.916 461.529C306.972 465.355 301.876 470.366 297.994 476.289C291.049 487.04 286.196 498.976 283.648 511.488C282.677 519.232 279.584 526.521 274.671 532.565C270.667 536.817 263.661 533.749 260.659 529.74C258.657 523.484 258.141 516.832 259.173 510.333C260.446 497.487 263.055 484.822 266.937 472.522C273.003 456.668 281.586 441.908 292.352 428.788C304.393 415.82 319.709 406.375 336.693 401.394C352.464 398.782 368.63 400.726 383.339 406.952C393.379 411.447 402.265 418.219 409.301 426.693C415.398 433.466 420.068 441.423 423.04 450.048C424.314 455.818 425.012 461.68 425.133 467.572C425.119 467.817 425.108 468.071 425.098 468.33C425.021 470.262 424.932 472.5 422.981 473.463C420.138 474.983 417.137 476.165 414.134 477.347ZM694.52 312.982C691.123 320.119 684.026 324.705 676.141 324.918C656.214 325.799 636.258 325.708 616.332 324.584C604.806 325.191 593.555 320.696 585.639 312.254C582.758 307.941 582.545 302.383 585.032 297.827C588.581 292.968 593.858 289.658 599.802 288.655C617.151 286.256 634.711 285.8 652.15 287.349C665.647 286.499 678.991 290.265 690.062 298.04C694.732 301.441 696.552 307.546 694.52 312.982Z" fill="url(#paint0_linear_37_178)"/>
<path d="M777.325 380.821C773.253 380.852 769.151 381.366 765.2 382.426C753.622 385.818 742.379 390.329 731.683 395.871C721.229 400.414 710.472 404.199 699.472 407.196C689.627 410.649 679.598 413.495 669.419 415.706C658.175 417.886 647.084 420.763 635.931 423.428C628.426 424.397 621.041 426.183 613.901 428.727C610.679 430.211 607.337 431.301 604.025 432.512C598.707 437.418 599.224 445.473 596.58 451.802C604.997 451.953 613.415 451.226 621.68 449.591C623.291 449.258 624.932 448.895 626.542 448.531C626.603 449.107 626.725 450.257 626.785 450.802C626.877 450.227 627.059 449.016 627.15 448.44C639.275 447.532 650.792 443.383 662.795 441.657H662.825C667.17 441.203 671.516 440.476 675.801 439.538C684.31 437.569 692.666 434.965 700.779 431.725C716.672 426.577 731.957 419.703 746.391 411.285C755.72 405.229 764.624 398.537 773.041 391.269C775.715 388.998 777.842 386.121 779.179 382.851C779.787 382.7 781.003 382.458 781.58 382.306C780.577 382.306 779.574 382.306 778.602 382.276L777.325 380.821Z" fill="#ACF5FF"/>
<path d="M649.326 507.27C658.345 494.339 663.338 478.937 663.58 463.109C663.55 462.529 663.489 461.401 663.459 460.821C661.673 461.401 659.888 461.95 658.072 462.316C642.607 465 627.113 467.683 611.467 468.995V469.025C604.748 469.757 597.969 469.818 591.221 469.208C586.379 476.376 580.689 482.963 574.334 488.819C573.426 489.673 572.488 490.496 571.58 491.35C578.056 498.121 584.109 505.288 590.767 511.875C597.243 518.524 604.174 524.715 611.467 530.388C615.341 533.834 620.818 534.78 625.57 532.797C635.708 526.698 643.909 517.852 649.326 507.27Z" fill="#ACF5FF"/>
<path d="M735.751 641.864C735.319 641.803 734.855 641.803 734.423 641.894C733.279 642.167 732.198 642.652 731.24 643.288C724.596 647.137 718.139 651.411 711.402 655.078H711.371C708.003 656.926 704.851 659.108 701.916 661.594C699.444 663.655 695.489 665.958 695.581 669.656C695.674 673.353 698.95 677.536 703.028 676.718C710.939 674.93 718.447 671.687 725.122 667.14C728.521 664.897 731.766 662.442 734.825 659.775C737.359 657.593 741.314 654.987 741.561 651.38C741.809 648.198 739.552 642.348 735.751 641.864Z" fill="url(#paint1_linear_37_178)"/>
<path d="M725.021 691.358L724.93 691.389C721.28 692.832 717.691 694.429 713.981 695.688H714.011C702.91 701.369 691.414 706.22 679.644 710.244C670.945 712.27 662.095 713.56 653.184 714.113C637.673 714.696 622.131 712.946 606.651 714.788C598.348 715.71 590.166 717.399 582.168 719.824C571.584 723.264 561.365 727.716 551.602 733.121C549.108 734.257 547.009 736.099 545.58 738.464C545.701 743.131 546.918 747.707 549.108 751.821C566.2 750.071 582.168 742.486 599.412 741.412C623.044 740.245 647.101 743.807 670.428 738.31H670.398C680.86 735.731 691.079 732.169 700.903 727.685C710.878 721.789 720.216 714.758 728.64 706.743C731.012 704.746 732.959 702.29 734.419 699.526C734.48 699.066 734.54 698.636 734.571 698.144C734.693 695.78 733.567 693.477 731.651 692.095C729.705 690.713 727.211 690.437 725.021 691.358Z" fill="url(#paint2_linear_37_178)"/>
<path d="M723.179 747.822C704.304 761.49 682.515 770.49 659.543 774.152C641.487 775.799 623.461 772.321 605.404 773.206C572.903 774.396 541.464 785.135 515 804.081C508.476 808.261 502.315 812.959 496.58 818.207C497.005 822.448 497.824 826.658 499.068 830.777C499.25 831.296 499.645 832.303 499.857 832.821C515.546 827.208 529.931 818.482 545.438 812.441C560.824 806.308 576.998 802.372 593.476 800.786C603.308 800.145 613.171 800.206 622.973 800.939C632.835 801.915 642.729 802.342 652.622 802.251C668.614 801.244 684.212 796.789 698.354 789.192C707.883 784.189 716.349 777.355 723.237 769.056C725.938 766.28 728.093 762.985 729.58 759.415C729.367 754.747 727.003 750.477 723.179 747.822Z" fill="url(#paint3_linear_37_178)"/>
<g clip-path="url(#clip0_37_178)">
<path fill-rule="evenodd" clip-rule="evenodd" d="M461.305 254.842C460.579 252.424 332.169 187.451 251.261 172.883C315.997 202.048 352.736 224.071 420.125 287.079C439.859 276.593 462.03 257.259 461.305 254.842Z" fill="url(#paint4_linear_37_178)"/>
<path fill-rule="evenodd" clip-rule="evenodd" d="M420.125 287.079C352.736 224.071 315.997 202.048 251.261 172.883C251.299 173.729 251.276 175.021 251.92 175.88C252.564 176.74 313.688 243.59 347.014 297.311C347.014 297.311 349.14 301.121 352.331 300.685C355.523 300.249 395.533 298.593 420.125 287.079Z" fill="url(#paint5_linear_37_178)"/>
</g>
<defs>
<linearGradient id="paint0_linear_37_178" x1="512.079" y1="200.285" x2="512.079" y2="933.821" gradientUnits="userSpaceOnUse">
<stop stop-color="#ACF5FF"/>
<stop offset="1" stop-color="#32A3D1"/>
</linearGradient>
<linearGradient id="paint1_linear_37_178" x1="718.58" y1="641.821" x2="718.58" y2="676.821" gradientUnits="userSpaceOnUse">
<stop stop-color="#ACF5FF"/>
<stop offset="1" stop-color="#2DA5C3"/>
</linearGradient>
<linearGradient id="paint2_linear_37_178" x1="640.08" y1="690.821" x2="640.08" y2="751.821" gradientUnits="userSpaceOnUse">
<stop stop-color="#ACF5FF"/>
<stop offset="1" stop-color="#2DA5C3"/>
</linearGradient>
<linearGradient id="paint3_linear_37_178" x1="613.08" y1="747.821" x2="613.08" y2="832.821" gradientUnits="userSpaceOnUse">
<stop stop-color="#ACF5FF"/>
<stop offset="1" stop-color="#2DA5C3"/>
</linearGradient>
<linearGradient id="paint4_linear_37_178" x1="250.488" y1="173.314" x2="460.642" y2="253.649" gradientUnits="userSpaceOnUse">
<stop stop-color="white"/>
<stop offset="1" stop-color="#45D6E9"/>
</linearGradient>
<linearGradient id="paint5_linear_37_178" x1="250.47" y1="173.324" x2="460.631" y2="253.678" gradientUnits="userSpaceOnUse">
<stop stop-color="#45D6E9"/>
<stop offset="1" stop-color="#2D92C9"/>
</linearGradient>
<clipPath id="clip0_37_178">
<rect width="187.345" height="187.345" fill="white" transform="matrix(-0.873241 0.487288 0.487288 0.873241 394.018 90.1787)"/>
</clipPath>
</defs>
</svg>
